<?xml version="1.0" encoding="UTF-8"?>
<svg id="Capa_1" data-name="Capa 1" xmlns="http://www.w3.org/2000/svg" viewBox="0 0 431.37 525.83">
  <defs>
    <style>
      .cls-1 {
        fill: #fdf5e7;
      }

      .cls-1, .cls-2, .cls-3, .cls-4, .cls-5 {
        stroke-width: 0px;
      }

      .cls-2 {
        fill: #fff;
      }

      .cls-3 {
        fill: #59463f;
      }

      .cls-4 {
        fill: #0d0e10;
      }

      .cls-5 {
        fill: #8c3604;
      }
    </style>
  </defs>
  <path class="cls-3" d="M112.89,273.18c-14.01,0-26.65-4.2-38.83-8.67-9.45,4.03-19.13,6.07-28.85,6.07-25.59,0-43.47-15.28-43.47-37.15,0-11.11,5.26-21.16,14.82-28.3,8.76-6.54,20.71-10.15,33.67-10.15,15.67,0,29.38,5.05,42.64,9.93,3.82,1.41,7.5,2.76,11.19,3.99,3.73-3.71,7.59-7.75,11.6-12.17-5.14,1.73-10.57,2.63-16.16,2.63-23.09,0-40.5-17.49-40.5-40.68,0-21.24,11.63-41.33,32.76-56.59,19.05-13.76,43.35-21.65,66.68-21.65,29.36,0,45.2,11.55,53.31,21.22.32-.01.65-.02.99-.02,10.8,0,13.08,7.14,13.52,9.33l1.07,5.29-5.39,5.33c1.02,3.94,1.54,7.97,1.54,12,0,25.08-17.99,47.61-45.07,58.03,2.14,5.92,3.24,12.74,3.24,20.25,0,16.75-7.83,32.48-22.04,44.3-13.01,10.82-30.04,17.02-46.72,17.02ZM148.05,197.78c-4.33,5.65-8.67,11.05-13.02,16.19,9.47-1.12,21.78-7.88,21.78-16.06,0-.29-.02-.58-.07-.86-2.78.37-5.67.61-8.7.73ZM196.03,134.52c-8.3,9.04-17.85,22.11-27.79,35.83,14.61-8.3,24.99-23.13,27.79-35.83ZM133.48,119.07c10.5,2.78,18.41,14.05,18.41,26.22,0,2.7-.22,5.4-.63,8.08,13.71-17.27,26.12-32.4,37.92-41.71-6.72-6.21-17.36-9.55-30.92-9.55-17.2,0-29.63,5.94-37.85,13.51l13.07,3.46ZM113.46,123.73c-3.82,5.76-5.63,11.6-5.63,15.98,0,7.58,5.93,10.27,11.01,10.27s10.27-3.59,10.27-7.11c0-1.47-.89-3.38-1.47-3.85l-1.82-.87-12.36-14.41Z"/>
  <path class="cls-3" d="M183.84,157.45c-1.76,2.04-3.68,3.99-5.74,5.82l14.29,21.4c2.3-1.42,4.49-2.95,6.57-4.57l-15.12-22.65ZM126.04,85.32l13.09,19.6c2.6-.82,5.37-1.49,8.32-1.97l-13.21-19.78c-2.75.61-5.49,1.33-8.2,2.15Z"/>
  <path class="cls-5" d="M227.33,116.25l-1.07-5.29c-.44-2.19-2.72-9.32-13.52-9.32-.33,0-.66,0-.99.02-8.11-9.67-23.94-21.22-53.3-21.22-8.04,0-16.2.94-24.21,2.73l13.21,19.78c3.37-.54,6.97-.84,10.81-.84,13.56,0,24.2,3.34,30.92,9.56-6.91,5.45-14.03,12.9-21.49,21.6-1.77,2.06-3.55,4.19-5.37,6.38-3.59,4.36-7.27,8.97-11.06,13.73.42-2.68.64-5.39.64-8.09,0-12.17-7.92-23.44-18.42-26.21l-13.07-3.46c4.78-4.4,10.98-8.25,18.72-10.7l-13.09-19.6c-12.3,3.68-24.05,9.38-34.28,16.77-21.12,15.26-32.75,35.35-32.75,56.59,0,23.19,17.41,40.68,40.49,40.68,5.59,0,11.02-.9,16.16-2.63-4.01,4.42-7.87,8.47-11.6,12.17-3.69-1.22-7.37-2.58-11.19-3.99-13.26-4.88-26.98-9.93-42.64-9.93-12.96,0-24.92,3.6-33.67,10.15-9.56,7.14-14.82,17.19-14.82,28.3,0,21.87,17.87,37.15,43.47,37.15,9.72,0,19.4-2.04,28.85-6.07,12.18,4.47,24.82,8.67,38.83,8.67,16.68,0,33.71-6.2,46.72-17.02,14.21-11.82,22.04-27.55,22.04-44.3,0-7.52-1.1-14.34-3.24-20.26,4.99-1.92,9.66-4.25,13.98-6.93l-14.29-21.4c-3,2.66-6.31,5.07-9.86,7.09,2.57-3.55,5.11-7.05,7.61-10.45,1.72-2.33,3.41-4.61,5.08-6.82,5.33-7.07,10.41-13.46,15.1-18.56-1.65,7.49-5.94,15.73-12.19,22.92l15.12,22.65c15.25-11.83,24.53-28.52,24.53-46.52,0-4.03-.53-8.06-1.55-12l5.39-5.33ZM118.84,149.98c-5.08,0-11.01-2.69-11.01-10.27,0-4.38,1.81-10.21,5.63-15.97l12.36,14.41,1.82.87c.58.47,1.47,2.38,1.47,3.85,0,3.52-5.18,7.11-10.27,7.11ZM135.03,213.97c4.35-5.14,8.69-10.54,13.02-16.19,3.02-.12,5.91-.36,8.7-.73.04.28.06.57.06.86,0,8.18-12.3,14.95-21.78,16.06Z"/>
  <path class="cls-5" d="M315.18,160.87c-5.23,0-9.95-2.29-12.95-6.28-3.03-4.04-3.93-9.33-2.47-14.52,2.29-8.74,11.06-15.56,20.07-15.56,5.12,0,9.79,2.22,12.81,6.08,3.11,3.99,4.15,9.28,2.84,14.52l-.1.37c-2.56,8.77-11.24,15.38-20.2,15.38Z"/>
  <path class="cls-1" d="M315.18,150.87c4.46,0,9.3-3.72,10.6-8.18,1.12-4.46-1.49-8.18-5.95-8.18s-9.3,3.72-10.41,8.18c-1.3,4.46,1.3,8.18,5.76,8.18Z"/>
  <path class="cls-5" d="M162.58,438.89c-24.71,0-40.68-14.29-40.68-36.4,0-20.35,17.65-41.98,50.35-41.98,14.03,0,26.24,5.21,38.05,10.25,4.31,1.84,8.46,3.61,12.59,5.09,1.51-1.54,3-3.1,4.48-4.68-1.98.27-4,.41-6.03.41-21.16,0-36.84-14.45-38.49-34.85-4.87,1.62-9.69,2.45-14.38,2.45-16.03,0-27.66-11.63-27.66-27.66,0-19.09,16.53-33.71,37.38-47.84-1.67.38-3.36.57-5.06.57-7.05,0-14.65-4.99-14.65-15.95,0-21.59,30.76-69.58,55.79-87.04,7.34-5.18,14.35-7.93,20.22-7.93,3.92,0,7.36,1.36,9.84,3.63,4.73-3.63,9.03-5.3,13.22-5.3,10,0,17.25,7.1,17.25,16.88,0,2.59-.58,5.69-1.77,9.1,7.89-11.2,13.98-19.19,14.31-19.63l3-3.93h15.73v16.91c3.66-3.56,7.55-6.91,11.57-9.72,7.34-5.18,14.35-7.93,20.23-7.93,1.62,0,3.16.23,4.59.67,1.48-2.96,2.82-5.83,3.95-8.54-1.14-3.59-2.37-7.88-2.37-12.25,0-12.17,7.26-17.62,14.46-17.62,4.89,0,13.16,3.52,13.16,16.69,0,4.89-1.11,9.46-2.32,13.13,2.59,7.21,3.8,12.97,3.8,17.92,0,7.77-3.2,13.72-8.43,20.81l19.87,4.99-8.19,11.87c-.72,1.05-2.22,3.45-3.95,6.23-22.48,36.12-38.45,57.03-53.56,57.03-6.94,0-14.97-4.1-16.02-15.43-9.8,10.66-17.74,15.43-26.37,15.43-4.3,0-8.8-1.85-11.66-5.78-5.36,4.48-9.41,5.78-13.26,5.78-3.24,0-6.12-.77-8.48-2.17-.8,3.26-1.77,6.53-2.89,9.78,13.12-4.43,27.18-6.93,40.26-6.93s23.62,2.58,32.39,7.52c5.77-3.55,11.28-5.29,16.7-5.29,10.8,0,13.08,7.14,13.52,9.32l1.07,5.29-9.83,9.72-5.09-3.4c-.17,0-.37,0-.6,0-.09,0-.23,0-.39.03,2.18,4.45,3.33,9.37,3.33,14.52,0,12.43-9.84,29.62-30.65,36.43,2.87,6.16,4.43,13.45,4.43,21.4,0,18.82-9.8,38.29-26.89,53.42-16.76,14.83-38.12,23.34-58.6,23.34-11.96,0-20.31-2.29-27.21-5.14-10.33,4.58-20.21,6.81-30.06,6.81ZM279.27,345.15c-7.48,10.52-15.52,21.66-24.04,32.35,14.14-4.86,25.29-16.99,25.29-26.89,0-2.29-.39-4.08-1.25-5.46ZM231.45,322.12c1.62,1.57,4.07,2.5,7,2.5,2.67,0,4.83-.74,6.42-1.66l-13.42-.84ZM280.29,286.42c-31.63,0-50.99,19.77-50.99,30.54,0,1.63.49,3.08,1.37,4.27l18.73-18.76,4.69.45c7.96.76,13.84,7.19,15.24,16.16,9.42-12.2,17.8-22.74,25.53-31.02-3.41-.93-8.12-1.62-14.57-1.62ZM217.07,226.71c-7.77,10.69-14.29,18.88-20.18,24.84,5.72-3.64,11.58-7.37,17.13-11.13,1.64-5.01,2.67-9.66,3.04-13.71Z"/>
  <path class="cls-5" d="M351.12,429.78c-6.46,0-13.87-3.55-15.71-13.19-8.47,9.5-14.73,13.19-20.73,13.19-5.25,0-9.53-2.01-12.27-5.46-4.2,3.56-8.38,5.46-13.02,5.46-7.06,0-14.65-4.99-14.65-15.95,0-24.95,42.15-94.23,84.75-94.23h9.67v10.25c3.71-6.56,7.05-13.08,9.47-18.86-1.14-3.59-2.37-7.88-2.37-12.25,0-12.17,7.26-17.62,14.46-17.62,4.89,0,13.16,3.52,13.16,16.69,0,4.88-1.11,9.45-2.32,13.13,2.59,7.22,3.8,12.98,3.8,17.92,0,7.77-3.2,13.73-8.43,20.81l19.88,4.98-8.2,11.87c-.72,1.05-2.22,3.45-3.95,6.24-22.48,36.11-38.44,57.02-53.55,57.02Z"/>
  <path class="cls-2" d="M399.65,360.65c-8.93,13.02-21.76,21.38-27.52,20.83-2.79-.19-3.16-2.42-3.16-4.28,0-6.69,6.69-16.73,13.57-25.29,8.37-10.6,12.83-15.99,12.83-23.06,0-5.21-2.05-11.71-4.46-17.85,1.67-4.28,2.97-8.74,2.97-13.2,0-4.83-1.49-6.69-3.16-6.69-3.35,0-4.46,3.72-4.46,7.62s1.86,8.93,2.97,12.64c-5.39,14.32-17.11,34.03-27.52,49.27h0c-8.93,13.02-21.2,22.5-26.96,21.94-2.6-.19-3.16-2.42-3.16-4.28,0-11.71,36.63-48.72,37.56-48.72h-9.67c-35.7,0-74.75,63.78-74.75,84.23,0,3.72,1.49,5.95,4.65,5.95,8.55,0,20.45-20.45,35.7-43.14h1.3c-9.86,15.25-17.29,29.57-17.29,37.38,0,3.72,1.67,5.76,5.58,5.76,11.71,0,42.4-51.13,47.79-58.94h0c9.85-14.32,21.75-33.28,27.52-47.6,1.67,4.46,2.79,8.55,2.79,12.64,0,6.88-4.09,14.88-11.53,24.73-13.76,18.22-36.26,44.07-36.26,61.18,0,5.21,1.86,8,6.14,8,14.88,0,43.88-51.13,49.28-58.94l-.74-.19ZM309.47,382.6c-3.35,0-3.91-2.6-3.91-4.46,0-6.69,7.25-17.85,17.48-27.89,9.48-9.3,21.57-17.48,33.28-19.15-7.44,13.57-38.49,51.51-46.86,51.51ZM387.75,297.62c0-2.79.74-5.02,2.97-5.02.93,0,1.67,1.49,1.67,4.83,0,4.09-1.12,8-2.23,11.71-.74-1.67-2.42-7.25-2.42-11.53Z"/>
  <path class="cls-2" d="M281.77,332.02c29.19-.19,39.79-19.52,39.79-29.38,0-6.88-2.79-12.83-7.81-17.29,5.21-4.65,10.23-7.25,14.88-7.25,2.79,0,3.9.19,4.46.56l.19-.19c-.19-.93-1.49-1.3-3.72-1.3-5.21,0-10.79,2.79-16.55,7.44-7.25-5.95-18.41-9.67-32.54-9.67-20.46,0-44.11,6.63-61.7,18.14,10.32-16.02,17.2-35.37,17.2-53.7v-1.86c8.53-7.86,18.11-17.83,32.8-35.85-11.66,17.88-22.77,37.38-22.77,46.82,0,3.72,1.67,5.76,5.58,5.76,6.06,0,17.19-13.67,27.27-27.96-4.36,8.97-7,16.88-7,22.01,0,3.72,1.49,5.95,4.65,5.95,11.34,0,24.92-16.92,53.74-58.94h0c9.85-14.32,21.75-33.28,27.52-47.6,1.67,4.46,2.79,8.55,2.79,12.64,0,6.88-4.09,14.88-11.53,24.73-13.76,18.22-36.26,44.07-36.26,61.18,0,5.21,1.86,8,6.14,8,14.88,0,43.88-51.13,49.27-58.94l-.74-.19c-8.93,13.02-21.76,21.38-27.52,20.83-2.79-.19-3.16-2.42-3.16-4.28,0-6.69,6.69-16.73,13.57-25.29,8.37-10.6,12.83-15.99,12.83-23.06,0-5.21-2.05-11.71-4.46-17.85,1.67-4.28,2.97-8.74,2.97-13.2,0-4.83-1.49-6.69-3.16-6.69-3.35,0-4.46,3.72-4.46,7.62s1.86,8.93,2.97,12.64c-5.39,14.32-17.11,34.03-27.52,49.27h0c-12.09,15.06-23.24,22.13-31.24,22.13-4.09,0-5.58-2.23-5.58-5.95,0-5.21,5.76-14.32,13.02-23.06h1.86c5.21,0,13.76-3.53,21.38-8.18,8.93-5.39,12.83-10.6,12.83-13.76,0-1.86-1.49-2.97-3.9-2.97-3.16,0-8.18,1.67-14.5,6.14-10.37,7.24-21.4,19.86-30.58,33.2-7.63,8.71-16.04,14.4-20.74,14.4-2.6,0-4.09-1.86-4.09-5.02,0-14.32,37.19-47.97,38.12-47.97h-10.79s-10.9,14.28-22.45,31.47c-12.89,16.53-24.69,29.24-36.86,40.49-.19-8.55-1.49-18.59-9.67-25.29,27.52-12.27,38.49-34.4,38.49-42.21,0-4.28-2.79-6.88-7.25-6.88-9.11,0-24.54,22.87-31.42,33.47h0c-12.09,15.06-23.24,22.13-31.24,22.13-4.09,0-5.58-2.23-5.58-5.95,0-5.21,5.76-14.32,13.02-23.06h1.86c5.21,0,13.76-3.53,21.38-8.18,8.92-5.39,12.83-10.6,12.83-13.76,0-1.86-1.49-2.97-3.91-2.97-3.16,0-8.18,1.67-14.5,6.14-23.99,16.74-51.51,62.29-51.51,78.84,0,3.72,1.49,5.95,4.65,5.95,11.34,0,24.92-16.92,53.74-58.94h0c6.88-10.6,21.38-31.05,29.38-31.05,2.42,0,3.53,1.3,3.53,3.9,0,7.44-11.71,29.19-34.59,42.02-1.12-.56-2.23-.74-2.98-.74-1.49,0-2.23.56-2.23,1.3,0,.93.74,1.49,2.6,1.49.74,0,1.86-.37,2.6-.93,1.86,2.23,2.04,8,2.04,12.09,0,7.07-1.86,15.25-4.83,23.43-31.42,21.76-71.59,40.72-71.59,64.71,0,11.9,8.55,17.66,17.67,17.66s18.38-3.97,27.24-10.63c-1.94,4.59-3.01,9.46-3.01,14.58,0,16.74,11.71,28.45,28.63,28.45,20.27,0,38.3-18.22,38.3-38.3,0-5.76-2.6-10.04-6.51-10.41l-.56.56c2.97.19,5.39,2.98,5.39,6.32,0,7.81-9.11,14.88-19.52,14.88-10.97,0-19.15-7.62-19.15-17.66,0-16.55,23.8-40.54,60.99-40.54,15.06,0,25.66,3.53,30.68,9.86-10.97,9.48-23.99,26.22-37.56,43.88h-7.07l-.19,1.3,6.14.37c-14.32,18.78-29.57,38.86-46.67,55.41-18.22-5.21-34.59-16.73-53.37-16.73-25.66,0-40.35,15.8-40.35,31.98s11.53,26.4,30.68,26.4c10.41,0,20.27-2.97,29.94-7.81,7.07,3.35,14.88,6.14,27.33,6.14,37.93,0,75.49-33.28,75.49-66.75,0-10.97-3.72-23.06-13.57-28.45ZM355.52,132.09c0-2.79.74-5.02,2.97-5.02.93,0,1.67,1.49,1.67,4.83,0,4.09-1.12,8-2.23,11.71-.74-1.67-2.42-7.25-2.42-11.53ZM324.29,170.76c3.53-2.42,6.32-3.53,8-3.53,1.3,0,2.04.56,2.04,1.67,0,1.67-1.67,4.46-5.21,7.81-5.58,5.21-14.13,10.41-20.83,10.04h-1.49c5.39-6.32,11.9-12.27,17.48-15.99ZM220.92,170.76c3.53-2.42,6.32-3.53,8-3.53,1.3,0,2.04.56,2.04,1.67,0,1.67-1.67,4.46-5.21,7.81-5.58,5.21-14.13,10.41-20.83,10.04h-1.49c5.39-6.32,11.9-12.27,17.48-15.99ZM179.07,286.6c0-8.55,26.03-26.78,42.77-38.3-4.28,11.16-10.6,21.75-16.74,29.01-11.53,13.76-18.04,14.88-20.45,14.88-3.35,0-5.58-2.04-5.58-5.58ZM161.65,419.6c-6.51,0-13.2-1.3-13.2-5.21,0-4.65,9.85-5.02,11.9-5.02,8.55.19,15.25,3.16,21.94,6.69-6.69,2.23-13.57,3.53-20.64,3.53ZM311.71,287.21c1.67,2.6,2.6,5.39,2.6,8.74,0,12.09-15.06,34.59-36.26,34.77-.19,0-.56,0-.74-.19,12.64-17.85,24.17-33.84,34.4-43.33ZM242.72,389.66c-3.53,0-6.88-.37-10.23-.93,15.99-17.29,30.49-37.93,43.7-56.53h.93c7.81,2.23,13.39,8.18,13.39,18.41,0,19.34-24.17,39.05-47.79,39.05Z"/>
  <path class="cls-2" d="M171.65,211.86c0-11.34-2.79-20.27-8-26.22,30.68-6.88,49.83-29.38,49.83-52.06,0-6.69-1.86-13.76-5.76-20.27,1.49-.37,2.79-.74,4.09-.74,2.79,0,3.9.19,4.46.56l.19-.19c-.19-.93-1.49-1.3-3.72-1.3-1.86,0-3.53.37-5.39.93-7.62-12.27-23.06-22.13-48.9-22.13-42.95,0-89.44,29.94-89.44,68.24,0,18.04,13.02,30.68,30.5,30.68,25.1,0,42.4-22.31,42.4-44.07,0-7.25-4.65-14.88-10.97-16.55l1.12,1.3c4.65,2.23,7.07,8.37,7.07,12.83,0,9.85-10.23,17.11-20.27,17.11-11.9,0-21.01-8.18-21.01-20.27,0-17.66,19.34-47.6,60.43-47.6,25.29,0,39.23,10.23,45.18,22.13-16.36,8.18-35.89,34.96-58.39,63.03h-.56c-6.69,0-9.48,2.6-9.48,5.02,0,1.49.93,3.16,2.79,4.09-9.86,11.9-20.27,23.62-31.05,33.84-19.15-5.58-36.45-15.25-56.53-15.25-22.5,0-38.49,12.27-38.49,28.45s13.95,27.15,33.47,27.15c9.86,0,19.34-2.42,28.45-6.88,13.02,4.83,25.66,9.48,39.23,9.48,29.19,0,58.76-22.13,58.76-51.32ZM41.12,253.32c-6.69,0-12.64-1.86-12.64-4.83s3.53-4.28,10.41-4.46c8.18.93,15.8,2.98,23.43,5.58-6.88,2.23-13.95,3.72-21.2,3.72ZM203.82,114.98c2.05,4.28,2.98,8.74,2.98,13.02,0,21.76-19.34,47.6-44.63,55.97-3.16-3.16-7.25-5.21-11.71-6.14,20.83-28.45,38.68-55.04,53.37-62.85ZM149.33,179.13c4.09.93,7.81,2.79,10.79,5.39-4.65,1.3-9.48,2.05-14.32,2.05h-1.86l5.39-7.44ZM144.13,178.57l-5.21,6.32c-.74-.56-1.12-1.3-1.12-2.23,0-2.97,3.35-4.09,6.32-4.09ZM114.38,222.08c10.04-10.6,19.71-22.31,28.63-34.21h.37c6.51,0,12.64-.56,18.41-1.86,2.98,3.16,5.02,7.25,5.02,11.9,0,16.36-20.83,26.22-34.4,26.22-6.32,0-12.27-.74-18.04-2.05Z"/>
  <path class="cls-4" d="M212.09,199.76l-13.13-19.66-15.12-22.65-2.91-4.36c-1.67,2.21-3.36,4.49-5.08,6.82l2.25,3.36,14.29,21.4,13.25,19.85c2.91-.35,5.26-1.62,6.44-4.76Z"/>
  <path class="cls-4" d="M293.77,322.08l-38.85-58.18c-1.88,1.01-9.47.22-10.53-1.37l41.67,62.39c2.89-.24,5.4-1.34,7.72-2.84Z"/>
  <path class="cls-4" d="M323,365.85l-18.71-28.01c-2.87,1.12-5.48,1.84-8.56,1.59l21.27,31.86c2.66-1.34,4.83-3.04,5.99-5.43Z"/>
  <path class="cls-4" d="M147.45,102.95l-13.21-19.78-30.4-45.52c3.67-3.7,5.94-8.78,5.94-14.39,0-11.27-9.17-20.44-20.44-20.44s-20.44,9.17-20.44,20.44,9.17,20.44,20.44,20.44c2.78,0,5.44-.56,7.86-1.58l28.85,43.2,13.09,19.6,23.19,34.73c1.82-2.19,3.6-4.32,5.37-6.38l-20.24-30.32ZM76.89,23.25c0-6.86,5.58-12.44,12.44-12.44s12.44,5.58,12.44,12.44-5.58,12.44-12.44,12.44-12.44-5.58-12.44-12.44Z"/>
  <path class="cls-4" d="M410.92,484.95c-2.63,0-5.13.52-7.44,1.42l-40.48-60.62c-.98.82-5.57,3.11-6.9,3.33-.15.03-.29.06-.43.08l41.08,61.52c-3.86,3.72-6.27,8.93-6.27,14.7,0,11.27,9.17,20.44,20.44,20.44s20.44-9.17,20.44-20.44-9.17-20.44-20.44-20.44ZM410.92,517.83c-6.86,0-12.44-5.58-12.44-12.44s5.58-12.44,12.44-12.44,12.44,5.58,12.44,12.44-5.58,12.44-12.44,12.44Z"/>
</svg>